<svg width="64" height="64" viewBox="0 0 64 64" fill="none" xmlns="http://www.w3.org/2000/svg">
<path d="M49.5 24V24.0001C49.5 24.0012 49.5004 24.0166 49.4795 24.0519C49.4562 24.0912 49.4098 24.1489 49.3234 24.2213C49.1473 24.3688 48.8576 24.5339 48.437 24.7043C47.6003 25.0435 46.3596 25.3594 44.7899 25.6285C41.6586 26.1653 37.3132 26.5 32.5 26.5C27.6868 26.5 23.3414 26.1653 20.2101 25.6285C18.6404 25.3594 17.3997 25.0435 16.563 24.7043C16.1424 24.5339 15.8527 24.3688 15.6766 24.2213C15.5902 24.1489 15.5438 24.0912 15.5205 24.0519C15.4996 24.0166 15.5 24.0012 15.5 24.0001L15.5 24L15.5 23.9999C15.5 23.9988 15.4996 23.9834 15.5205 23.9481C15.5438 23.9088 15.5902 23.8511 15.6766 23.7787C15.8527 23.6312 16.1424 23.4661 16.563 23.2957C17.3997 22.9565 18.6404 22.6406 20.2101 22.3715C23.3414 21.8347 27.6868 21.5 32.5 21.5C37.3132 21.5 41.6586 21.8347 44.7899 22.3715C46.3596 22.6406 47.6003 22.9565 48.437 23.2957C48.8576 23.4661 49.1473 23.6312 49.3234 23.7787C49.4098 23.8511 49.4562 23.9088 49.4795 23.9481C49.5004 23.9834 49.5 23.9988 49.5 23.9999V24Z" fill="#8B8B8B" stroke="#333333"/>
<path d="M44.0041 17.5C44.8312 17.5 45.5 18.1702 45.5 19V31C45.5 31.8284 44.8284 32.5 44 32.5H22C21.1716 32.5 20.5 31.8284 20.5 31V19C20.5 18.1688 21.1659 17.5 21.9917 17.5H22.0173H22.0431H22.0691H22.0951H22.1214H22.1477H22.1742H22.2009H22.2277H22.2546H22.2817H22.3089H22.3362H22.3637H22.3913H22.419H22.4469H22.4749H22.5031H22.5313H22.5598H22.5883H22.617H22.6458H22.6748H22.7038H22.7331H22.7624H22.7919H22.8215H22.8512H22.8811H22.9111H22.9412H22.9714H23.0018H23.0323H23.0629H23.0937H23.1245H23.1555H23.1867H23.2179H23.2493H23.2808H23.3124H23.3441H23.376H23.408H23.4401H23.4723H23.5047H23.5371H23.5697H23.6024H23.6352H23.6682H23.7012H23.7344H23.7677H23.8011H23.8346H23.8683H23.902H23.9359H23.9699H24.004H24.0382H24.0725H24.107H24.1415H24.1762H24.2109H24.2458H24.2808H24.3159H24.3511H24.3864H24.4219H24.4574H24.493H24.5288H24.5647H24.6006H24.6367H24.6729H24.7091H24.7455H24.782H24.8186H24.8553H24.8921H24.929H24.966H25.0031H25.0403H25.0776H25.115H25.1525H25.1901H25.2278H25.2656H25.3035H25.3415H25.3796H25.4178H25.4561H25.4945H25.5329H25.5715H25.6102H25.6489H25.6878H25.7267H25.7658H25.8049H25.8441H25.8834H25.9228H25.9623H26.0019H26.0416H26.0814H26.1212H26.1612H26.2012H26.2413H26.2815H26.3218H26.3622H26.4026H26.4432H26.4838H26.5245H26.5653H26.6062H26.6472H26.6883H26.7294H26.7706H26.8119H26.8533H26.8947H26.9363H26.9779H27.0196H27.0614H27.1032H27.1451H27.1872H27.2292H27.2714H27.3136H27.356H27.3983H27.4408H27.4834H27.526H27.5687H27.6114H27.6542H27.6971H27.7401H27.7832H27.8263H27.8695H27.9127H27.9561H27.9995H28.0429H28.0865H28.1301H28.1737H28.2175H28.2613H28.3051H28.3491H28.3931H28.4371H28.4813H28.5255H28.5697H28.614H28.6584H28.7029H28.7474H28.7919H28.8366H28.8813H28.926H28.9708H29.0157H29.0606H29.1056H29.1506H29.1957H29.2409H29.2861H29.3314H29.3767H29.4221H29.4675H29.513H29.5586H29.6041H29.6498H29.6955H29.7413H29.7871H29.8329H29.8788H29.9248H29.9708H30.0168H30.063H30.1091H30.1553H30.2016H30.2479H30.2942H30.3406H30.387H30.4335H30.4801H30.5266H30.5732H30.6199H30.6666H30.7134H30.7601H30.807H30.8539H30.9008H30.9477H30.9947H31.0418H31.0888H31.136H31.1831H31.2303H31.2775H31.3248H31.3721H31.4194H31.4668H31.5142H31.5617H31.6092H31.6567H31.7042H31.7518H31.7994H31.8471H31.8947H31.9425H31.9902H32.038H32.0858H32.1336H32.1815H32.2294H32.2773H32.3252H32.3732H32.4212H32.4693H32.5173H32.5654H32.6135H32.6616H32.7098H32.758H32.8062H32.8544H32.9027H32.9509H32.9992H33.0476H33.0959H33.1443H33.1926H33.241H33.2895H33.3379H33.3864H33.4348H33.4833H33.5318H33.5804H33.6289H33.6775H33.726H33.7746H33.8232H33.8719H33.9205H33.9691H34.0178H34.0665H34.1152H34.1638H34.2126H34.2613H34.31H34.3587H34.4075H34.4562H34.505H34.5538H34.6026H34.6513H34.7001H34.7489H34.7977H34.8465H34.8954H34.9442H34.993H35.0418H35.0907H35.1395H35.1883H35.2372H35.286H35.3349H35.3837H35.4325H35.4814H35.5302H35.5791H35.6279H35.6767H35.7256H35.7744H35.8232H35.8721H35.9209H35.9697H36.0185H36.0673H36.1161H36.1649H36.2137H36.2625H36.3113H36.36H36.4088H36.4575H36.5063H36.555H36.6037H36.6524H36.7011H36.7498H36.7985H36.8471H36.8958H36.9444H36.993H37.0416H37.0902H37.1388H37.1873H37.2359H37.2844H37.3329H37.3814H37.4299H37.4783H37.5268H37.5752H37.6236H37.672H37.7203H37.7687H37.817H37.8653H37.9136H37.9618H38.0101H38.0583H38.1064H38.1546H38.2027H38.2508H38.2989H38.347H38.395H38.443H38.491H38.5389H38.5869H38.6348H38.6826H38.7304H38.7783H38.826H38.8738H38.9215H38.9692H39.0168H39.0644H39.112H39.1595H39.2071H39.2545H39.302H39.3494H39.3968H39.4441H39.4914H39.5387H39.5859H39.6331H39.6803H39.7274H39.7744H39.8215H39.8685H39.9154H39.9623H40.0092H40.056H40.1028H40.1496H40.1963H40.2429H40.2896H40.3361H40.3827H40.4291H40.4756H40.522H40.5683H40.6146H40.6609H40.7071H40.7532H40.7993H40.8454H40.8914H40.9373H40.9833H41.0291H41.0749H41.1207H41.1664H41.212H41.2576H41.3031H41.3486H41.3941H41.4394H41.4848H41.53H41.5752H41.6204H41.6655H41.7105H41.7555H41.8004H41.8453H41.8901H41.9349H41.9796H42.0242H42.0688H42.1133H42.1577H42.2021H42.2464H42.2906H42.3348H42.379H42.423H42.467H42.511H42.5548H42.5986H42.6424H42.686H42.7296H42.7732H42.8166H42.86H42.9034H42.9466H42.9898H43.0329H43.076H43.1189H43.1618H43.2047H43.2474H43.2901H43.3327H43.3753H43.4177H43.4601H43.5024H43.5447H43.5868H43.6289H43.6709H43.7128H43.7547H43.7965H43.8382H43.8798H43.9213H43.9628H44.0041Z" fill="#D9D9D9" stroke="#333333"/>
<path d="M28.1714 24.6364V26.4545M28.1714 26.4545L28.9143 25.7273M28.1714 26.4545L27.4286 25.7273" stroke="#333333"/>
<path d="M25.7143 20.4091H31C31.8284 20.4091 32.5 21.0806 32.5 21.9091V22.2727C32.5 23.1011 31.8284 23.7727 31 23.7727H25.7143C24.8859 23.7727 24.2143 23.1011 24.2143 22.2727V21.9091C24.2143 21.0806 24.8859 20.4091 25.7143 20.4091Z" stroke="#333333"/>
<path d="M35.3571 27.4091V20.4091H43.2714V27.4091H35.3571Z" fill="#EEEEEE" stroke="#333333"/>
<path d="M15.5 24.8511C16.0425 25.1002 16.8982 25.4197 18.194 25.7358C20.8067 26.373 25.2238 27 32.5 27C39.7762 27 44.1933 26.373 46.806 25.7358C48.1018 25.4197 48.9575 25.1002 49.5 24.8511V50.6893C49.3351 50.7665 49.0914 50.8749 48.7674 51.0045C48.0833 51.2782 47.0407 51.6466 45.6238 52.0162C42.7904 52.7553 38.4578 53.5 32.5 53.5C26.5422 53.5 22.2096 52.7553 19.3762 52.0162C17.9593 51.6466 16.9167 51.2782 16.2326 51.0045C15.9086 50.8749 15.6649 50.7665 15.5 50.6893V24.8511Z" fill="#8B8B8B" stroke="#333333"/>
<path d="M31 35.3646C31 35.3646 31 34.5443 29.4 35.3646C27.8 36.1849 25 35.3646 25 35.3646V38.099M25 38.099V43.8413C25 43.8413 30.6 44.935 31 41.3803C31.4 37.8256 25 38.099 25 38.099ZM31.8 43.8413H33.4M33.4 43.8413C33.4 43.8413 32.6 35.3646 35.8 35.3646C39 35.3646 39 43.8413 39 43.8413M33.4 43.8413H39M39 43.8413H41" stroke="#333333"/>
</svg>
