<svg width="64" height="64" viewBox="0 0 64 64" fill="none" xmlns="http://www.w3.org/2000/svg">
<path d="M47.0057 12.5C47.8323 12.5 48.5 13.1697 48.5 14V50C48.5 50.8284 47.8284 51.5 47 51.5H16C15.1716 51.5 14.5 50.8284 14.5 50V14C14.5 13.1678 15.1638 12.5 15.9885 12.5H16.0208H16.0534H16.0862H16.1192H16.1524H16.1859H16.2196H16.2536H16.2877H16.3221H16.3567H16.3916H16.4266H16.4619H16.4974H16.5332H16.5691H16.6053H16.6417H16.6783H16.7151H16.7522H16.7894H16.8269H16.8646H16.9025H16.9406H16.979H17.0175H17.0563H17.0952H17.1344H17.1738H17.2134H17.2532H17.2932H17.3334H17.3739H17.4145H17.4553H17.4964H17.5376H17.5791H17.6207H17.6626H17.7046H17.7469H17.7893H17.832H17.8748H17.9178H17.9611H18.0045H18.0481H18.092H18.136H18.1802H18.2246H18.2692H18.314H18.3589H18.4041H18.4494H18.495H18.5407H18.5866H18.6327H18.679H18.7254H18.7721H18.8189H18.8659H18.9131H18.9605H19.008H19.0557H19.1036H19.1517H19.2H19.2484H19.297H19.3458H19.3948H19.4439H19.4932H19.5427H19.5924H19.6422H19.6922H19.7423H19.7926H19.8431H19.8938H19.9446H19.9956H20.0468H20.0981H20.1496H20.2012H20.253H20.305H20.3571H20.4094H20.4619H20.5145H20.5673H20.6202H20.6733H20.7265H20.7799H20.8334H20.8871H20.941H20.995H21.0491H21.1034H21.1579H21.2125H21.2672H21.3221H21.3772H21.4324H21.4877H21.5432H21.5988H21.6546H21.7105H21.7665H21.8227H21.8791H21.9355H21.9921H22.0489H22.1058H22.1628H22.22H22.2773H22.3347H22.3923H22.45H22.5078H22.5658H22.6239H22.6821H22.7404H22.7989H22.8575H22.9163H22.9751H23.0341H23.0933H23.1525H23.2119H23.2714H23.331H23.3907H23.4506H23.5105H23.5706H23.6309H23.6912H23.7517H23.8122H23.8729H23.9337H23.9946H24.0557H24.1168H24.1781H24.2394H24.3009H24.3625H24.4242H24.486H24.5479H24.61H24.6721H24.7343H24.7967H24.8591H24.9217H24.9843H25.0471H25.11H25.1729H25.236H25.2991H25.3624H25.4258H25.4892H25.5528H25.6164H25.6802H25.744H25.808H25.872H25.9361H26.0003H26.0646H26.129H26.1935H26.2581H26.3228H26.3875H26.4524H26.5173H26.5823H26.6474H26.7126H26.7779H26.8432H26.9086H26.9741H27.0397H27.1054H27.1712H27.237H27.3029H27.3689H27.4349H27.5011H27.5673H27.6336H27.6999H27.7664H27.8329H27.8994H27.9661H28.0328H28.0996H28.1664H28.2334H28.3003H28.3674H28.4345H28.5017H28.569H28.6363H28.7036H28.7711H28.8386H28.9061H28.9738H29.0414H29.1092H29.177H29.2448H29.3127H29.3807H29.4487H29.5168H29.5849H29.6531H29.7214H29.7896H29.858H29.9264H29.9948H30.0633H30.1318H30.2004H30.269H30.3377H30.4064H30.4752H30.544H30.6128H30.6817H30.7506H30.8196H30.8886H30.9577H31.0268H31.0959H31.165H31.2342H31.3035H31.3728H31.4421H31.5114H31.5808H31.6502H31.7196H31.7891H31.8586H31.9281H31.9977H32.0672H32.1369H32.2065H32.2762H32.3458H32.4156H32.4853H32.555H32.6248H32.6946H32.7645H32.8343H32.9042H32.974H33.0439H33.1139H33.1838H33.2537H33.3237H33.3937H33.4637H33.5337H33.6037H33.6737H33.7438H33.8138H33.8839H33.9539H34.024H34.0941H34.1642H34.2343H34.3044H34.3745H34.4446H34.5147H34.5848H34.6549H34.7251H34.7952H34.8653H34.9354H35.0055H35.0756H35.1457H35.2159H35.2859H35.356H35.4261H35.4962H35.5663H35.6363H35.7064H35.7764H35.8465H35.9165H35.9865H36.0565H36.1265H36.1965H36.2664H36.3364H36.4063H36.4762H36.5461H36.616H36.6858H36.7556H36.8254H36.8952H36.965H37.0348H37.1045H37.1742H37.2439H37.3135H37.3831H37.4527H37.5223H37.5918H37.6613H37.7308H37.8003H37.8697H37.9391H38.0084H38.0777H38.147H38.2163H38.2855H38.3547H38.4238H38.4929H38.562H38.631H38.7H38.769H38.8379H38.9067H38.9756H39.0443H39.1131H39.1818H39.2504H39.319H39.3876H39.4561H39.5245H39.5929H39.6613H39.7296H39.7979H39.8661H39.9342H40.0023H40.0704H40.1384H40.2063H40.2742H40.342H40.4098H40.4775H40.5451H40.6127H40.6802H40.7477H40.8151H40.8824H40.9497H41.0169H41.0841H41.1512H41.2182H41.2851H41.352H41.4188H41.4856H41.5523H41.6189H41.6854H41.7519H41.8183H41.8846H41.9508H42.017H42.0831H42.1491H42.215H42.2809H42.3467H42.4124H42.478H42.5436H42.609H42.6744H42.7397H42.8049H42.8701H42.9351H43.0001H43.065H43.1298H43.1945H43.2591H43.3236H43.3881H43.4524H43.5167H43.5808H43.6449H43.7089H43.7728H43.8366H43.9002H43.9638H44.0273H44.0908H44.1541H44.2173H44.2804H44.3434H44.4063H44.4691H44.5318H44.5944H44.6569H44.7193H44.7816H44.8438H44.9058H44.9678H45.0297H45.0914H45.1531H45.2146H45.276H45.3373H45.3985H45.4596H45.5206H45.5814H45.6421H45.7028H45.7633H45.8237H45.8839H45.9441H46.0041H46.064H46.1238H46.1835H46.243H46.3025H46.3618H46.4209H46.48H46.5389H46.5977H46.6564H46.7149H46.7733H46.8316H46.8898H46.9478H47.0057Z" fill="#D9D9D9" stroke="#333333"/>
<path d="M35 42.5H38C38.8284 42.5 39.5 43.1716 39.5 44V46C39.5 46.8284 38.8284 47.5 38 47.5H35C34.1716 47.5 33.5 46.8284 33.5 46V44C33.5 43.1716 34.1716 42.5 35 42.5Z" stroke="#333333"/>
<path d="M36 40.5V38L32 34M36 40.5L37 39.5M36 40.5L35 39.5" stroke="#333333"/>
<path d="M21 42.5H29.5C30.3284 42.5 31 43.1716 31 44V46C31 46.8284 30.3284 47.5 29.5 47.5H21C20.1716 47.5 19.5 46.8284 19.5 46V44C19.5 43.1716 20.1716 42.5 21 42.5Z" stroke="#333333"/>
<path d="M25 38V40.5M25 40.5L26 39.5M25 40.5L24 39.5" stroke="#333333"/>
<path d="M21 26.5H29C29.8284 26.5 30.5 27.1716 30.5 28V35C30.5 35.8284 29.8284 36.5 29 36.5H21C20.1716 36.5 19.5 35.8284 19.5 35V28C19.5 27.1716 20.1716 26.5 21 26.5Z" stroke="#333333"/>
<path d="M25 22.5V25M25 25L26 24M25 25L24 24" stroke="#333333"/>
<path d="M21 16.5H29.5C30.3284 16.5 31 17.1716 31 18V20C31 20.8284 30.3284 21.5 29.5 21.5H21C20.1716 21.5 19.5 20.8284 19.5 20V18C19.5 17.1716 20.1716 16.5 21 16.5Z" stroke="#333333"/>
<path d="M34.5 26.5V16.5H45.5V26.5H34.5Z" fill="#EEEEEE" stroke="#333333"/>
</svg>
