<svg width="64" height="64" viewBox="0 0 64 64" fill="none" xmlns="http://www.w3.org/2000/svg">
<path d="M12 38H31V19C31 15.6863 28.3137 13 25 13H18C14.6863 13 12 15.6863 12 19V38Z" fill="#FFF490"/>
<path d="M43.0041 17.5C43.8312 17.5 44.5 18.1702 44.5 19V31C44.5 31.8284 43.8284 32.5 43 32.5H21C20.1716 32.5 19.5 31.8284 19.5 31V19C19.5 18.1688 20.1659 17.5 20.9917 17.5H21.0173H21.0431H21.0691H21.0951H21.1214H21.1477H21.1742H21.2009H21.2277H21.2546H21.2817H21.3089H21.3362H21.3637H21.3913H21.419H21.4469H21.4749H21.5031H21.5313H21.5598H21.5883H21.617H21.6458H21.6748H21.7038H21.7331H21.7624H21.7919H21.8215H21.8512H21.8811H21.9111H21.9412H21.9714H22.0018H22.0323H22.0629H22.0937H22.1245H22.1555H22.1867H22.2179H22.2493H22.2808H22.3124H22.3441H22.376H22.408H22.4401H22.4723H22.5047H22.5371H22.5697H22.6024H22.6352H22.6682H22.7012H22.7344H22.7677H22.8011H22.8346H22.8683H22.902H22.9359H22.9699H23.004H23.0382H23.0725H23.107H23.1415H23.1762H23.2109H23.2458H23.2808H23.3159H23.3511H23.3864H23.4219H23.4574H23.493H23.5288H23.5647H23.6006H23.6367H23.6729H23.7091H23.7455H23.782H23.8186H23.8553H23.8921H23.929H23.966H24.0031H24.0403H24.0776H24.115H24.1525H24.1901H24.2278H24.2656H24.3035H24.3415H24.3796H24.4178H24.4561H24.4945H24.5329H24.5715H24.6102H24.6489H24.6878H24.7267H24.7658H24.8049H24.8441H24.8834H24.9228H24.9623H25.0019H25.0416H25.0814H25.1212H25.1612H25.2012H25.2413H25.2815H25.3218H25.3622H25.4026H25.4432H25.4838H25.5245H25.5653H25.6062H25.6472H25.6883H25.7294H25.7706H25.8119H25.8533H25.8947H25.9363H25.9779H26.0196H26.0614H26.1032H26.1451H26.1872H26.2292H26.2714H26.3136H26.356H26.3983H26.4408H26.4834H26.526H26.5687H26.6114H26.6542H26.6971H26.7401H26.7832H26.8263H26.8695H26.9127H26.9561H26.9995H27.0429H27.0865H27.1301H27.1737H27.2175H27.2613H27.3051H27.3491H27.3931H27.4371H27.4813H27.5255H27.5697H27.614H27.6584H27.7029H27.7474H27.7919H27.8366H27.8813H27.926H27.9708H28.0157H28.0606H28.1056H28.1506H28.1957H28.2409H28.2861H28.3314H28.3767H28.4221H28.4675H28.513H28.5586H28.6041H28.6498H28.6955H28.7413H28.7871H28.8329H28.8788H28.9248H28.9708H29.0168H29.063H29.1091H29.1553H29.2016H29.2479H29.2942H29.3406H29.387H29.4335H29.4801H29.5266H29.5732H29.6199H29.6666H29.7134H29.7601H29.807H29.8539H29.9008H29.9477H29.9947H30.0418H30.0888H30.136H30.1831H30.2303H30.2775H30.3248H30.3721H30.4194H30.4668H30.5142H30.5617H30.6092H30.6567H30.7042H30.7518H30.7994H30.8471H30.8947H30.9425H30.9902H31.038H31.0858H31.1336H31.1815H31.2294H31.2773H31.3252H31.3732H31.4212H31.4693H31.5173H31.5654H31.6135H31.6616H31.7098H31.758H31.8062H31.8544H31.9027H31.9509H31.9992H32.0476H32.0959H32.1443H32.1926H32.241H32.2895H32.3379H32.3864H32.4348H32.4833H32.5318H32.5804H32.6289H32.6775H32.726H32.7746H32.8232H32.8719H32.9205H32.9691H33.0178H33.0665H33.1152H33.1638H33.2126H33.2613H33.31H33.3587H33.4075H33.4562H33.505H33.5538H33.6026H33.6513H33.7001H33.7489H33.7977H33.8465H33.8954H33.9442H33.993H34.0418H34.0907H34.1395H34.1883H34.2372H34.286H34.3349H34.3837H34.4325H34.4814H34.5302H34.5791H34.6279H34.6767H34.7256H34.7744H34.8232H34.8721H34.9209H34.9697H35.0185H35.0673H35.1161H35.1649H35.2137H35.2625H35.3113H35.36H35.4088H35.4575H35.5063H35.555H35.6037H35.6524H35.7011H35.7498H35.7985H35.8471H35.8958H35.9444H35.993H36.0416H36.0902H36.1388H36.1873H36.2359H36.2844H36.3329H36.3814H36.4299H36.4783H36.5268H36.5752H36.6236H36.672H36.7203H36.7687H36.817H36.8653H36.9136H36.9618H37.0101H37.0583H37.1064H37.1546H37.2027H37.2508H37.2989H37.347H37.395H37.443H37.491H37.5389H37.5869H37.6348H37.6826H37.7304H37.7783H37.826H37.8738H37.9215H37.9692H38.0168H38.0644H38.112H38.1595H38.2071H38.2545H38.302H38.3494H38.3968H38.4441H38.4914H38.5387H38.5859H38.6331H38.6803H38.7274H38.7744H38.8215H38.8685H38.9154H38.9623H39.0092H39.056H39.1028H39.1496H39.1963H39.2429H39.2896H39.3361H39.3827H39.4291H39.4756H39.522H39.5683H39.6146H39.6609H39.7071H39.7532H39.7993H39.8454H39.8914H39.9373H39.9833H40.0291H40.0749H40.1207H40.1664H40.212H40.2576H40.3031H40.3486H40.3941H40.4394H40.4848H40.53H40.5752H40.6204H40.6655H40.7105H40.7555H40.8004H40.8453H40.8901H40.9349H40.9796H41.0242H41.0688H41.1133H41.1577H41.2021H41.2464H41.2906H41.3348H41.379H41.423H41.467H41.511H41.5548H41.5986H41.6424H41.686H41.7296H41.7732H41.8166H41.86H41.9034H41.9466H41.9898H42.0329H42.076H42.1189H42.1618H42.2047H42.2474H42.2901H42.3327H42.3753H42.4177H42.4601H42.5024H42.5447H42.5868H42.6289H42.6709H42.7128H42.7547H42.7965H42.8382H42.8798H42.9213H42.9628H43.0041Z" fill="#D9D9D9" stroke="#333333"/>
<path d="M27.1714 24.6364V26.4545M27.1714 26.4545L27.9143 25.7273M27.1714 26.4545L26.4286 25.7273" stroke="#333333"/>
<path d="M24.7143 20.4091H30C30.8284 20.4091 31.5 21.0806 31.5 21.9091V22.2727C31.5 23.1011 30.8284 23.7727 30 23.7727H24.7143C23.8859 23.7727 23.2143 23.1011 23.2143 22.2727V21.9091C23.2143 21.0806 23.8859 20.4091 24.7143 20.4091Z" stroke="#333333"/>
<path d="M34.3571 27.4091V20.4091H42.2714V27.4091H34.3571Z" fill="#EEEEEE" stroke="#333333"/>
<mask id="path-6-inside-1_31_176" fill="white">
<path d="M12 23H46C49.3137 23 52 25.6863 52 29V48C52 51.3137 49.3137 54 46 54H18C14.6863 54 12 51.3137 12 48V23Z"/>
</mask>
<path d="M12 23H46C49.3137 23 52 25.6863 52 29V48C52 51.3137 49.3137 54 46 54H18C14.6863 54 12 51.3137 12 48V23Z" fill="#FFF490"/>
<path d="M12 22H45C48.866 22 52 25.134 52 29C52 26.2386 49.3137 24 46 24H12V22ZM52 54H12H52ZM12 54V23V54ZM52 23V54V23Z" fill="#FF7A2F" mask="url(#path-6-inside-1_31_176)"/>
</svg>
