<svg width="512" height="512" viewBox="0 0 512 512" fill="none" xmlns="http://www.w3.org/2000/svg">
<rect x="25" y="25" width="462" height="379" rx="35" fill="#FFB3F3" stroke="#333333" stroke-width="30"/>
<path d="M328.5 490.5V476.032C328.635 476.041 328.795 476.051 328.979 476.063C329.638 476.106 330.604 476.169 331.835 476.254C334.297 476.423 337.814 476.674 342.039 477.006C350.489 477.67 361.764 478.654 373.069 479.934C384.377 481.215 395.701 482.791 404.254 484.637C408.534 485.561 412.097 486.548 414.611 487.59C415.871 488.112 416.841 488.637 417.504 489.159C418.176 489.688 418.461 490.156 418.503 490.552C418.722 492.638 417.553 495.014 413.3 497.424C409.047 499.835 401.833 502.198 390.287 504.258C367.208 508.375 326.996 511.25 259.002 511C191.007 510.75 150.415 508 126.644 504.069C114.755 502.103 107.109 499.847 102.356 497.482C97.6 495.116 95.8344 492.692 95.4946 490.426C95.4322 490.01 95.5902 489.553 96.0986 489.033C96.612 488.508 97.4359 487.972 98.5651 487.436C100.818 486.366 104.149 485.36 108.229 484.425C116.38 482.556 127.404 480.996 138.494 479.747C149.579 478.498 160.713 477.561 169.076 476.936C173.258 476.624 176.746 476.39 179.189 476.233C180.411 476.155 181.371 476.097 182.025 476.058C182.207 476.047 182.366 476.037 182.5 476.03V490.5H183H183.5V475.5V474.971V419.5H327.5V474.969V475.5V490.5H328H328.5Z" fill="#4A4A4A" stroke="black"/>
<path d="M226 468L237.712 420M270.408 420L287 468" stroke="black"/>
<g filter="url(#filter0_d_2402_687)">
<path d="M93.2618 232.302L46.8926 201.049L84.4768 145.287L130.846 176.541L105.086 214.759L144.056 241.026L148.987 241.16C148.987 241.16 152.258 239.073 154.092 237.312C157.452 234.086 168.31 217.282 168.31 217.282L149.318 204.481L183.102 154.359C183.102 154.359 176.409 152.581 172.881 142.914C169.353 133.247 172.449 127.589 169.555 116.982C166.661 106.375 161.799 104.009 161.799 104.009L145.118 128.757L103.189 100.496L136.55 51L178.48 79.2614L161.799 104.009C161.799 104.009 166.661 106.375 169.555 116.982C172.449 127.589 169.353 133.247 172.881 142.914C176.409 152.581 183.102 154.359 183.102 154.359L195.77 135.563L233.754 161.164L210.528 195.624L228.725 235.679L247.517 207.799L285.993 233.733L248.409 289.494L209.933 263.56L228.725 235.679L210.528 195.624L187.301 230.083L168.31 217.282C168.31 217.282 157.452 234.086 154.092 237.312C152.258 239.073 148.987 241.16 148.987 241.16L144.056 241.026L105.086 214.759L93.2618 232.302Z" fill="#00FFD1"/>
<path d="M161.799 104.009L145.118 128.757L103.189 100.496L136.55 51L178.48 79.2614L161.799 104.009ZM161.799 104.009C161.799 104.009 166.661 106.375 169.555 116.982C172.449 127.589 169.353 133.247 172.881 142.914C176.409 152.581 183.102 154.359 183.102 154.359M183.102 154.359L149.318 204.481L168.31 217.282M183.102 154.359L195.77 135.563L233.754 161.164L210.528 195.624M183.102 154.359L164.857 154.818M183.102 154.359L182.175 135.511M105.086 214.759L93.2618 232.302L46.8926 201.049L84.4768 145.287L130.846 176.541L105.086 214.759ZM105.086 214.759L144.056 241.026L148.987 241.16C148.987 241.16 152.258 239.073 154.092 237.312C157.452 234.086 168.31 217.282 168.31 217.282M168.31 217.282L187.301 230.083L210.528 195.624M168.31 217.282L151.934 220.823M168.31 217.282L168.003 235.299M210.528 195.624L228.725 235.679M228.725 235.679L209.933 263.56L248.409 289.494L285.993 233.733L247.517 207.799L228.725 235.679ZM228.725 235.679L209.417 224.944M228.725 235.679L231.246 209.588" stroke="black" stroke-width="6"/>
</g>
<path d="M379.77 61.757C345.083 49.7447 332.469 59.7937 332.469 59.7937C332.469 59.7937 317.804 46.4345 294.928 50.5109C272.052 54.5872 269.821 70.5189 269.821 70.5189C269.821 70.5189 247.424 78.8415 242.403 108.517C237.381 138.192 263.902 144.177 263.902 144.177C263.902 144.177 256.618 167.568 280.543 182.072C304.468 196.576 328.724 188.26 328.724 188.26C328.724 188.26 344.218 209.268 382.434 211.847C420.65 214.426 416.203 188.135 416.203 188.135C416.203 188.135 438.785 189.712 450.68 173.187C462.576 156.663 446.483 137.797 446.483 137.797C446.483 137.797 464.117 115.249 447.649 98.0081C431.18 80.7676 411.819 85.1404 411.819 85.1404C411.819 85.1404 414.456 73.7694 379.77 61.757Z" fill="#146EC1"/>
<path d="M328.516 103.492L299.971 107.491L320.417 127.808M378.043 129.276L395.243 156.616L368.931 156.632M376.51 99.8833L324.906 159.262M332.469 59.7937C332.469 59.7937 345.083 49.7447 379.77 61.757C414.456 73.7694 411.819 85.1404 411.819 85.1404C411.819 85.1404 431.18 80.7676 447.649 98.0081C464.117 115.249 446.483 137.797 446.483 137.797C446.483 137.797 462.576 156.663 450.68 173.187C438.785 189.712 416.203 188.135 416.203 188.135C416.203 188.135 420.65 214.426 382.434 211.847C344.218 209.268 328.724 188.26 328.724 188.26C328.724 188.26 304.468 196.576 280.543 182.072C256.618 167.568 263.902 144.177 263.902 144.177C263.902 144.177 237.381 138.192 242.403 108.517C247.424 78.8415 269.821 70.5189 269.821 70.5189C269.821 70.5189 272.052 54.5872 294.928 50.5109C317.804 46.4345 332.469 59.7937 332.469 59.7937Z" stroke="white" stroke-width="6"/>
<path d="M76.9113 286.004C79.5491 282.851 84.6947 282.56 84.6947 282.56L439.747 262.531C439.747 262.531 444.893 262.24 448.832 265.524C452.772 268.807 453.025 273.3 453.025 273.3L455.982 325.717C455.982 325.717 455.17 336.279 459.859 344.528C464.548 352.777 472.173 354.851 472.173 354.851L441.767 356.566L89.9892 376.411C89.9892 376.411 85.7791 376.649 81.8397 373.365C77.9002 370.082 77.5341 363.592 77.5341 363.592L73.6477 294.702C73.6477 294.702 74.2735 289.158 76.9113 286.004Z" fill="#FBFFC8" stroke="#656565" stroke-width="10"/>
<path d="M88.7211 308.914L106.171 305.334M123.622 301.753L106.171 305.334M106.171 305.334L109.109 357.402M134.933 311.367L118.634 315.04L119.627 332.637M143.301 344.302L120.62 350.234L119.627 332.637M119.627 332.637L138.885 328.171M138.919 293.259L150.326 344.552L156.314 326.414M162.747 307.294L156.314 326.414M156.314 326.414L169.163 350M201.109 312.641L178.375 300.248L170.292 325.626L179.743 342.246L192.223 341.542L203.122 330.556M198.24 297.279L213.863 306.211M233.924 317.3L213.863 306.211M213.863 306.211L216.128 346.349M280.778 288.987L302.28 297.289M318.15 303.404L302.28 297.289M302.28 297.289L304.927 344.214M324.788 314.548L327.24 295.881L335.235 304.444L324.788 314.548ZM324.788 314.548L320.403 343.341L349.272 340.21L324.788 314.548ZM342.816 314.533L356.089 301.264L372.563 300.335L375.686 320.19L342.816 314.533ZM342.816 314.533L365.247 339.309L383.105 336.298M353.36 288.397L382.314 286.764M407.19 283.858L382.314 286.764M382.314 286.764L392.288 339.286M404.635 348.104L408.368 331.367M432.091 346.555L418.123 294.259L408.368 331.367M408.368 331.367L440.535 324.545M262.674 296.518L264.266 342.502L288.991 336.916L287.199 305.151L262.674 296.518Z" stroke="#656565" stroke-width="10"/>
<defs>
<filter id="filter0_d_2402_687" x="38.728" y="46.8356" width="255.43" height="254.823" filterUnits="userSpaceOnUse" color-interpolation-filters="sRGB">
<feFlood flood-opacity="0" result="BackgroundImageFix"/>
<feColorMatrix in="SourceAlpha" type="matrix" values="0 0 0 0 0 0 0 0 0 0 0 0 0 0 0 0 0 0 127 0" result="hardAlpha"/>
<feOffset dy="4"/>
<feGaussianBlur stdDeviation="2"/>
<feComposite in2="hardAlpha" operator="out"/>
<feColorMatrix type="matrix" values="0 0 0 0 0 0 0 0 0 0 0 0 0 0 0 0 0 0 0.25 0"/>
<feBlend mode="normal" in2="BackgroundImageFix" result="effect1_dropShadow_2402_687"/>
<feBlend mode="normal" in="SourceGraphic" in2="effect1_dropShadow_2402_687" result="shape"/>
</filter>
</defs>
</svg>
